<svg width="512" height="512" viewBox="0 0 512 512" fill="none" xmlns="http://www.w3.org/2000/svg">
  <rect width="512" height="512" rx="64" fill="#10b981"/>
  <path d="M256 128C179.2 128 116 191.2 116 268C116 344.8 179.2 408 256 408C332.8 408 396 344.8 396 268C396 191.2 332.8 128 256 128ZM256 376C197.6 376 148 326.4 148 268C148 209.6 197.6 160 256 160C314.4 160 364 209.6 364 268C364 326.4 314.4 376 256 376Z" fill="white"/>
  <path d="M256 200C220 200 188 232 188 268C188 304 220 336 256 336C292 336 324 304 324 268C324 232 292 200 256 200ZM256 304C238.4 304 220 285.6 220 268C220 250.4 238.4 232 256 232C273.6 232 292 250.4 292 268C292 285.6 273.6 304 256 304Z" fill="white"/>
  <text x="256" y="290" font-family="Arial, sans-serif" font-size="120" font-weight="bold" fill="white" text-anchor="middle">B</text>
</svg>
